<?xml version="1.0" encoding="utf-8"?>
<!-- Generator: Adobe Illustrator 13.0.0, SVG Export Plug-In . SVG Version: 6.00 Build 14948)  -->
<!DOCTYPE svg PUBLIC "-//W3C//DTD SVG 1.1//EN" "http://www.w3.org/Graphics/SVG/1.1/DTD/svg11.dtd">
<svg version="1.1" id="Layer_1" xmlns="http://www.w3.org/2000/svg" xmlns:xlink="http://www.w3.org/1999/xlink" x="0px" y="0px"
	 width="230px" height="82px" viewBox="0 -1.5 230 82" enable-background="new 0 -1.5 230 82" xml:space="preserve">
<defs><style>.cls-1{fill:#a8c242;}.cls-2{fill:#6e7476;}</style></defs>
<path class="cls-1" d="M29.26,25.6a2.94,2.94,0,1,0-3-2.94A3,3,0,0,0,29.26,25.6Z"/><path class="cls-1" d="M11.75,27.46a2.94,2.94,0,1,0-3-2.94A3,3,0,0,0,11.75,27.46Z"/><path class="cls-1" d="M4.23,31.78a2.47,2.47,0,1,0-2.5-2.47A2.48,2.48,0,0,0,4.23,31.78Z"/><path class="cls-1" d="M20.55,21.89a4.1,4.1,0,1,0-4.14-4.09A4.12,4.12,0,0,0,20.55,21.89Z"/><path class="cls-1" d="M29.21,27.92a3.29,3.29,0,0,0-3.34,3.24V44.52H24.34V28.21a3.79,3.79,0,0,0-7.58,0V44.52H15.2V33a3.33,3.33,0,0,0-6.66,0v11.5H7.18V37.39a2.91,2.91,0,0,0-2.95-2.87,2.91,2.91,0,0,0-2.95,2.87V77.91a2.64,2.64,0,0,0,2.66,2.63H29.88a2.64,2.64,0,0,0,2.66-2.63V66.45a3,3,0,0,0-1.62-2.14H10.2a4.47,4.47,0,0,1-4-2.45,4.31,4.31,0,0,1-.49-2,4.42,4.42,0,0,1,1.48-3.29,4.56,4.56,0,0,1,3-1.16H30.85A2.71,2.71,0,0,0,32.54,54V31.16A3.28,3.28,0,0,0,29.21,27.92Z"/><path class="cls-2" d="M47.27,29.89v9c0,.51-.29.76-.86.76s-.91-.25-.91-.76V32.11a1.1,1.1,0,0,1-.83.54A.88.88,0,0,1,44,32.3a1,1,0,0,1,0-1.41,14.68,14.68,0,0,0,2.63-3.39.64.64,0,0,1,.63-.39q1,0,1,.87A6.11,6.11,0,0,1,47.27,29.89Zm-2.43-2.44a1,1,0,0,1-.69-.34,1,1,0,0,1-.34-.72,1,1,0,0,1,.28-.67,14.89,14.89,0,0,0,2.44-3.49.73.73,0,0,1,.65-.39c.67,0,1,.28,1,.85a7.67,7.67,0,0,1-1.38,2.66C45.9,26.76,45.24,27.46,44.84,27.45ZM56,36.74c0,.58-.23.87-.68.87H53.16v1.28c0,.51-.3.76-.89.76s-.82-.25-.82-.76V37.61H49.69q-1.41,0-1.41-1.14a2.5,2.5,0,0,1,.17-.82l.37-1h-.31c-.46,0-.69-.29-.69-.85s.23-.86.69-.86h2.94v-.64h-1.9c-.71,0-1.06-.4-1.06-1.19V29c0-.7.33-1.05,1-1.05h5a.92.92,0,0,1,1,1.05v2.26c0,.7-.34,1.06-1,1.06H53.16V33h2c.46,0,.68.29.68.86s-.22.85-.68.85h-2v1.2h2.13C55.74,35.89,56,36.18,56,36.74Zm0-10.16c0,.57-.22.85-.68.85H48.73c-.44,0-.66-.28-.66-.85s.22-.87.66-.87h1l.36-1.06H49.2c-.45,0-.68-.28-.68-.85s.23-.83.68-.83h1.31c0-.08.08-.25.17-.52.15-.51.42-.76.79-.76.63,0,.94.2.94.61a2.48,2.48,0,0,1-.16.67h1.26a1.1,1.1,0,0,1,1.25,1.24v1.5h.56C55.78,25.71,56,26,56,26.58Zm-2.13,3.53c0-.32-.1-.48-.31-.48H50.42c-.21,0-.31.17-.31.5s.1.52.31.52h3.16C53.78,30.65,53.87,30.47,53.87,30.11Zm-2.42,5.78v-1.2h-1c0,.06,0,.15-.1.28a1.88,1.88,0,0,0-.17.61c0,.21.17.31.52.31Zm1.68-10.18v-.6a.4.4,0,0,0-.44-.46h-.87l-.35,1.06Zm7.48,2.53c0,.67-.27,1-.79,1h-.45v8.52c0,1.19-.66,1.78-2,1.78s-1.8-.3-1.8-.91.24-1.07.73-1.07a.47.47,0,0,1,.16,0,3.75,3.75,0,0,0,.66.14h.06c.25,0,.38-.3.38-.92V29.24H56.51c-.54,0-.8-.33-.8-1s.26-.89.8-.89h3.31C60.34,27.35,60.61,27.65,60.61,28.24Zm-.37-4.63c0,.66-.26,1-.77,1H56.61c-.53,0-.8-.34-.8-1s.27-.89.8-.89h2.86C60,22.71,60.24,23,60.24,23.61Z"/><path class="cls-2" d="M79.17,37.87c0,.71-.28,1.06-.83,1.06H63.12c-.57,0-.86-.35-.86-1.06s.25-1,.75-1h7V32.93H64.86c-.56,0-.84-.35-.84-1s.25-1.07.75-1.07H70V27.39H65.82c-.94,2-1.69,3-2.23,3a1,1,0,0,1-1.14-1.14,1.18,1.18,0,0,1,.23-.67,18.17,18.17,0,0,0,2.54-5.69.72.72,0,0,1,.79-.57c.83,0,1.24.28,1.24.85a1.13,1.13,0,0,1,0,.32,3,3,0,0,0-.09.39c-.15.64-.29,1.12-.4,1.44H70V22.5c0-.54.32-.81,1-.81S72,22,72,22.56v2.72h5.8c.5,0,.75.35.75,1.06s-.28,1.05-.85,1.05H72v3.43h5c.51,0,.76.36.76,1.07s-.28,1-.85,1H72v3.89h6.39Q79.17,36.82,79.17,37.87Z"/><path class="cls-2" d="M83.25,32q0,5.78-1.39,5.78c-.69,0-1-.28-1-.85a1.5,1.5,0,0,1,.07-.45,13.41,13.41,0,0,0,.7-4.38V29.8c0-.53.27-.8.83-.8a.72.72,0,0,1,.82.8Zm4.59-4.74c0,.67-.29,1-.86,1H85.52V38.87q0,.78-.93.78t-.87-.78V28.26H81.87c-.55,0-.83-.33-.83-1s.28-1,.83-1H87C87.55,26.24,87.84,26.58,87.84,27.26Zm-.28-3.63q0,1-.84,1H82.36c-.57,0-.85-.34-.85-1s.28-1,.85-1h4.36C87.28,22.65,87.56,23,87.56,23.63Zm0,12a.8.8,0,0,1-1.6,0V29.8a.8.8,0,1,1,1.6,0ZM97.74,23.36c0,.62-.26.94-.78.94H88.57c-.52,0-.78-.32-.78-.94s.26-1,.78-1H97Q97.74,22.37,97.74,23.36Zm-.33,14.9c0,.69-.33,1-1,1H89.15c-.71,0-1.07-.4-1.07-1.21V31.54a.93.93,0,0,1,1-1.06h7.31c.66,0,1,.36,1,1.06Zm-.32-9.57c0,.7-.33,1-1,1h-6.6c-.69,0-1-.4-1-1.2V26c0-.72.33-1.07,1-1.07h6.63c.68,0,1,.35,1,1.07Zm-5.3,5.13V32.24H90.31c-.31,0-.47.19-.47.56v1Zm0,3.63V35.69h-2V37c0,.33.16.5.47.5Zm3.63-10.1c0-.38-.11-.57-.35-.57H90.45q-.33,0-.33.57c0,.35.11.52.33.52h4.64C95.31,27.87,95.42,27.7,95.42,27.35Zm.25,6.47v-1.1c0-.32-.15-.48-.44-.48h-1.6v1.58Zm0,3V35.69h-2v1.76h1.63C95.53,37.45,95.67,37.25,95.67,36.87Z"/><path class="cls-2" d="M110,27.43c0,.67-.24,1-.72,1h-3.13a28.23,28.23,0,0,1,2.26,2.46A4.83,4.83,0,0,1,109.65,33a.89.89,0,0,1-.33.67,1,1,0,0,1-.68.28q-.42,0-1.35-1.26l-.41-.63a.82.82,0,0,1-.11-.15c-.51-.73-.83-1.17-1-1.31v8.33c0,.49-.31.74-.94.74s-.92-.25-.92-.74v-7.3a11.29,11.29,0,0,1-1.8,2.28c-.78.82-1.34,1.22-1.67,1.22a1,1,0,0,1-.72-.37,1.12,1.12,0,0,1-.31-.77.86.86,0,0,1,.26-.63,23.34,23.34,0,0,0,4.06-4.91h-3.54c-.49,0-.73-.33-.73-1s.24-1,.73-1H104V24.11c-1.25,0-2.22.06-2.93.06-.52,0-.77-.36-.77-1.07s.31-.89.92-.89a62.55,62.55,0,0,0,7.19-.47h.14c.56,0,.85.37.85,1.11,0,.47-.38.76-1.15.88s-1.58.2-2.39.27v2.45h3.45C109.76,26.45,110,26.77,110,27.43ZM115.63,35c0,2-.19,3.22-.58,3.7a2.36,2.36,0,0,1-1.93.72c-2,0-2.93-.39-2.93-1.16s.28-1.36.84-1.36a1.47,1.47,0,0,1,.27,0,9.19,9.19,0,0,0,1.54.32c.66,0,1-.79,1-2.36V22.32c0-.43.29-.65.88-.65s.92.22.92.65Zm-3.54,0c0,.47-.31.7-.92.7s-.91-.23-.91-.7V23c0-.46.3-.69.89-.69s.94.22.94.67Z"/><path class="cls-2" d="M128.06,29.61c0,.65-.3,1-.89,1h-8.51c-.46,0-.7-.32-.7-.95s.23-1.05.69-1.05h1.65a19.55,19.55,0,0,0-.83-3.13H119c-.53,0-.79-.3-.79-.91s.28-1,.84-1h2.88v-.91c0-.64.3-1,.92-1s1,.3,1,.91v1h3c.63,0,.94.33.94,1a.79.79,0,0,1-.89.91h-.59c0,.26-.12.71-.24,1.35a1.55,1.55,0,0,1,0,.15c-.14.65-.27,1.2-.38,1.63h1.46C127.76,28.58,128.06,28.92,128.06,29.61Zm-.77,8.45c0,.71-.32,1.07-1,1.07h-6.47c-.69,0-1-.4-1-1.2V32.78c0-.72.33-1.07,1-1.07h6.49c.66,0,1,.35,1,1.07Zm-1.79-1.5V34.13a.39.39,0,0,0-.44-.44h-4c-.32,0-.47.18-.47.54v2.42c0,.33.15.5.47.5h4C125.36,37.15,125.5,37,125.5,36.56Zm-.93-11.11H121.4a5.68,5.68,0,0,0,.21.72c.2.73.38,1.53.54,2.41h1.74c.32-1.26.52-2.18.61-2.74C124.54,25.66,124.56,25.53,124.57,25.45Zm10.31,9.24q0,3.66-3,3.66h-.21a1.89,1.89,0,0,1-1.36-.53v1.07c0,.51-.3.76-.91.76s-.92-.25-.92-.76V23.45a1.13,1.13,0,0,1,1.29-1.26H133c1,0,1.45.46,1.45,1.37a38.77,38.77,0,0,1-1.57,5,5.37,5.37,0,0,0-.29,1,.48.48,0,0,0,.12.31A12.82,12.82,0,0,1,134.08,32,5.94,5.94,0,0,1,134.88,34.69Zm-1.82,0q0-1.77-2.05-4.16a1.23,1.23,0,0,1-.3-.78,1.87,1.87,0,0,1,.16-.68,39.38,39.38,0,0,0,1.44-4.43,1.13,1.13,0,0,0,.07-.33c0-.16-.13-.24-.38-.24h-1.15q-.54,0-.54.66V36.47a.48.48,0,0,1,.35-.21,1.23,1.23,0,0,1,.29,0,5,5,0,0,0,.88.13Q133.06,36.43,133.06,34.72Z"/><path class="cls-2" d="M152.86,37.72c0,1-.49,1.52-1.47,1.52H138.85c-1,0-1.46-.5-1.46-1.52V23.78c0-1,.49-1.52,1.46-1.52h12.54a1.32,1.32,0,0,1,1.47,1.52Zm-6.25-4.88a25.73,25.73,0,0,1-1-5.43h-5.53q-.72,0-.72-.87c0-.57.25-.85.73-.85h5.41q-.09-.95-.09-1.08a.57.57,0,0,1,.32-.5h-6.11q-.48,0-.48.54V36.87q0,.54.48.54h4.75a1,1,0,0,1-.6-.93.8.8,0,0,1,.35-.61l.67-.61a15.08,15.08,0,0,1-4.64,1c-.53,0-.79-.34-.79-1,0-.5.22-.78.67-.83a25.4,25.4,0,0,0,5.09-1.07.32.32,0,0,1,.14,0,.6.6,0,0,1,.64.59A4.86,4.86,0,0,0,146.61,32.84ZM145.18,32a1.14,1.14,0,0,1-1.29,1.28h-2.73A1.14,1.14,0,0,1,139.85,32V29.41a1.14,1.14,0,0,1,1.31-1.28h2.73a1.14,1.14,0,0,1,1.29,1.28Zm-1.51-.71V30.11c0-.24-.11-.37-.34-.37H141.7c-.21,0-.32.13-.32.37v1.13c0,.25.11.37.32.37h1.63C143.56,31.61,143.67,31.49,143.67,31.24Zm7.39,5.63V35c-.21,1.41-.75,2.11-1.62,2.11s-1.54-.71-2.06-2.15a10.78,10.78,0,0,1-2.18,2.43h5.37C150.9,37.41,151.06,37.23,151.06,36.87Zm-2.44-11.18a6.29,6.29,0,0,0-.75-.85.43.43,0,0,1-.09-.3.5.5,0,0,1,.21-.43h-1.15a.56.56,0,0,1,.3.49c0,.33.05.69.08,1.09Zm2.44,6.92v-8c0-.36-.16-.54-.49-.54H149.3q.75.7.75,1.08a.63.63,0,0,1-.23.5h.28c.49,0,.73.28.73.85s-.24.87-.71.87h-2.78c.14,1.31.3,2.41.46,3.32a22.78,22.78,0,0,0,.89-2.3.72.72,0,0,1,.71-.59c.65,0,1,.28,1,.85a10.17,10.17,0,0,1-.82,2.42l-.05.12c-.25.59-.55,1.22-.91,1.9.27,1,.51,1.52.72,1.52s.27-.55.33-1.67c0-.37.26-.55.75-.55A1.31,1.31,0,0,1,151.06,32.61Z"/><path class="cls-2" d="M170,39.52c-1.09,0-2.26-.73-3.5-2.2a12,12,0,0,1-2.57-4.67h-5.05v3.72a32.5,32.5,0,0,0,3.28-.77,15,15,0,0,1,1.76-.43c.59,0,.88.42.88,1.26,0,.48-.41.84-1.25,1.09l-2.44.67a27,27,0,0,1-5,.9c-.59,0-.88-.42-.88-1.27,0-.58.23-.91.71-1l.7-.12.35,0V24c0-1,.35-1.54,1-1.54H170.1c.67,0,1,.51,1,1.54V27c0,1-.34,1.54-1,1.54H165a9.42,9.42,0,0,0,.33,1.59c0,.19.07.32.09.39h5.66c.61,0,.91.36.91,1.09s-.3,1-.89,1H166a8.83,8.83,0,0,0,1.83,3c.79.88,1.37,1.32,1.75,1.32s.42-.5.53-1.5.38-1.39.86-1.39c.73,0,1.1.3,1.1.89a13.36,13.36,0,0,1-.42,2.72C171.36,38.88,170.81,39.5,170,39.52ZM169.14,26V25c0-.34-.16-.51-.47-.51H159.5c-.41,0-.61.17-.61.51v1.56h9.78C169,26.56,169.14,26.38,169.14,26Zm-5.68,4.54c0-.09-.06-.23-.11-.43a12.34,12.34,0,0,1-.33-1.55h-4.13v2Z"/><path class="cls-2" d="M177.09,26V38.87c0,.52-.3.78-.91.78s-.89-.26-.89-.78V30.54a.56.56,0,0,1-.54.33c-.65,0-1-.3-1-.9a1.41,1.41,0,0,1,.13-.52A24,24,0,0,0,176,22.24c0-.37.28-.55.71-.55.67,0,1,.23,1,.7C177.72,22.66,177.51,23.88,177.09,26Zm13.6,12.24c0,.63-.28.94-.84.94H184.9q-3.26,0-4.73-1.75c-.75,1.45-1.35,2.18-1.79,2.18-.73,0-1.1-.33-1.1-1a1,1,0,0,1,.23-.61,14.36,14.36,0,0,0,1.37-2.11,9.7,9.7,0,0,1-1.3-4.41c0-.5.31-.76.94-.76a.65.65,0,0,1,.75.58,13.83,13.83,0,0,0,.47,2.05,17.27,17.27,0,0,0,.16-2.48c0-.41-.1-.61-.3-.61h-1.38c-.65,0-1-.36-1-1.09a1.33,1.33,0,0,1,.24-.78c1.39-2,2.09-3.27,2.09-3.69,0-.12-.09-.18-.28-.18h-.8c-.55,0-.82-.31-.82-.93s.27-.94.82-.94h1.9a1.08,1.08,0,0,1,1.24,1.2,6.16,6.16,0,0,1-.49,1.74.77.77,0,0,0-.08.19.34.34,0,0,1,.34-.17h3.26v-.78h-2a.77.77,0,0,1-.86-.87c0-.63.29-.94.86-.94h2v-.5c0-.58.31-.87.91-.87a.75.75,0,0,1,.85.85v.52h1.78a1.22,1.22,0,0,1,1.38,1.37v1.2h.26c.56,0,.84.3.84.91a.75.75,0,0,1-.84.85h-.26v1.22A1.21,1.21,0,0,1,188.21,30h-1.78v.82h2.48c.55,0,.82.31.82.92s-.27.87-.82.87h-2.48v1h3.13c.54,0,.81.3.81.92s-.27.87-.81.87h-3.13v1.11c0,.44-.14.7-.43.8h3.85C190.41,37.28,190.69,37.61,190.69,38.28Zm-6-4.7v-1h-1.93a.76.76,0,0,1-.84-.87c0-.61.28-.92.84-.92h1.93V30h-2a.76.76,0,0,1-.85-.87c0-.61.28-.92.85-.92h2v-.8H181.4c-.47,0-.7-.27-.7-.81a.58.58,0,0,1,0-.19c-.47.88-.8,1.48-1,1.8a.34.34,0,0,0-.05.16c0,.08.05.12.17.12h.73c.69,0,1,.42,1,1.26v1.75c0,.52,0,1.07-.08,1.63,0,.37-.06.63-.06.76,0-.19.16-.29.47-.29Zm.54,3.64s0,0,0,0c-.34,0-.51-.24-.51-.74V35.37H182c-.43,0-.64-.31-.64-.92a4,4,0,0,1-.32,1.18c0,.19.36.5,1.07.93a4.74,4.74,0,0,0,2.59.66ZM188,25.65v-.39a.35.35,0,0,0-.4-.39h-1.12v.78Zm0,2.15v-.41h-1.52v.8h1.12A.35.35,0,0,0,188,27.8Z"/><path class="cls-2" d="M209.26,28.91c0,.62-.21.93-.61.93h-1v1q0,1.41-1.17,1.41h-3.84a9.83,9.83,0,0,0,2,2.59,1.07,1.07,0,0,1-.13-.5c0-.3.21-.58.64-.84s.79-.5,1-.66c.56-.4.93-.67,1.12-.82a.74.74,0,0,1,.48-.22.75.75,0,0,1,.62.39,1.31,1.31,0,0,1,.26.74c0,.28-.45.78-1.35,1.48a4.45,4.45,0,0,1-1.81,1l-.14,0a11.34,11.34,0,0,0,3.45,1.81.8.8,0,0,1,.53.82c0,.86-.32,1.3-.94,1.3a5.75,5.75,0,0,1-2.72-1.21,12,12,0,0,1-3-2.81V37.8q0,1.68-2,1.68-2.43,0-2.43-1.11c0-.77.27-1.16.8-1.16h.16c.72.09,1.18.14,1.38.14s.28-.21.28-.64V35.45c-.25.19-.75.58-1.52,1.15l-.26.16a10.79,10.79,0,0,1-3.09,1.85c-.59,0-.88-.4-.88-1.22a.94.94,0,0,1,.57-.83A23.9,23.9,0,0,0,198,35.13,14.31,14.31,0,0,0,196.2,34c-.42-.22-.63-.46-.63-.7,0-.76.27-1.13.8-1.13a1.06,1.06,0,0,1,.49.16l.3.17c1.35.78,2,1.3,2,1.57a.67.67,0,0,1-.05.26l.69-.57a.76.76,0,0,1,.46-.19.57.57,0,0,1,.47.24V32.19H196.6q-.66,0-.66-.87c0-.61.22-.91.66-.91h4.15V29.8h-5.28v2.11a21.12,21.12,0,0,1-.25,3,21.75,21.75,0,0,1-.68,3c-.29.91-.63,1.37-1,1.37-.76,0-1.15-.32-1.15-.95a1.35,1.35,0,0,1,.06-.37,22.27,22.27,0,0,0,1.13-7.66V24.54A1.33,1.33,0,0,1,195,23h5.37v-.63c0-.49.32-.74,1-.74s.94.25.94.74V23h6c.48,0,.71.34.71,1s-.23,1-.71,1h-5.7v.67h4c.69,0,1,.38,1,1.15V28h1C209.05,28,209.26,28.31,209.26,28.91ZM200.75,28v-.56h-4.19c-.43,0-.64-.3-.64-.9s.21-.89.64-.89h4.19V25H196.2c-.49,0-.73.22-.73.65V28Zm5.18,0v-.26c0-.2-.1-.3-.28-.3h-3.07V28Zm0,2.11v-.31h-3.35v.61h3.08Q205.93,30.45,205.93,30.15Z"/><path class="cls-2" d="M226.88,34.61a.44.44,0,0,1-.33-.11,8.88,8.88,0,0,0-.89-.66v4a1.27,1.27,0,0,1-1.43,1.46H215a1.29,1.29,0,0,1-1.47-1.46V35.41a8,8,0,0,1-1.36.35.12.12,0,0,1-.08,0l-.21,0q-.93,0-.93-1.23a1,1,0,0,1,.19-.61,4.85,4.85,0,0,1,1.59-.59A37.8,37.8,0,0,0,218,31.78h-6c-.51,0-.76-.29-.76-.87v-.06c0-.53.26-.79.76-.79h6.22v-.82h-4.88c-.51,0-.76-.27-.76-.83s.25-.87.76-.87h4.88v-.76h-5a1.25,1.25,0,0,1-1.41-1.43V23.67c0-1,.45-1.46,1.34-1.46h12.64c.91,0,1.37.5,1.37,1.5v1.61c0,1-.45,1.46-1.33,1.46H220v.76h4.69l.42-.33a.71.71,0,0,1,.52-.23.89.89,0,0,1,.7.36,1,1,0,0,1,.31.68c0,.32-.74,1-2.21,2H227c.47,0,.7.27.7.81s-.24.91-.72.91h-1.44c1.52.63,2.28,1.21,2.28,1.72C227.79,34.24,227.49,34.61,226.88,34.61Zm-10.77-9.53V23.87H214c-.31,0-.47.16-.47.49v.24a.42.42,0,0,0,.47.48Zm7.76,10.28v-.28a.38.38,0,0,0-.44-.43h-7.69c-.29,0-.43.17-.43.5v.21Zm0,1.88V37h-8.56v.29a.38.38,0,0,0,.43.43h7.69A.38.38,0,0,0,223.87,37.24Zm-3.21-12.16V23.87h-2.77v1.21ZM224.13,33a4.82,4.82,0,0,0-.63-.3c-.36-.17-.54-.38-.54-.61a.47.47,0,0,1,.09-.3H222l-.61.34-.53.25c-.08,0-.54.26-1.37.62Zm-1.5-3.75H220V30h1.34C222,29.61,222.48,29.34,222.63,29.22Zm2.65-4.62v-.24c0-.33-.16-.49-.47-.49h-2.37v1.21h2.37A.42.42,0,0,0,225.28,24.6Z"/><path class="cls-1" d="M46.4,62.63l-.56,1-2.1-.75a25.56,25.56,0,0,0,3.57-11.26l2.13.22a40.39,40.39,0,0,1-.88,5v19H46.4Zm4.82,1.73a23.46,23.46,0,0,0,1.2,3.76,17.08,17.08,0,0,0,1-5.25c0-.21,0-.34-.16-.34H50.61l-.83-1.07,2.8-6.78a.44.44,0,0,0,.05-.22s0-.05-.05-.05H50V52.34h4.39l.93,1.17-3,6.94h2.4c.45,0,.69.16.71.61a24.29,24.29,0,0,1-1.78,9.45A7.07,7.07,0,0,0,59.79,73H68.6L68,75.3H60.61c-3.88-.18-6.49-1.14-7.71-2.82A25.91,25.91,0,0,1,50.79,76L48.85,74.5a26.66,26.66,0,0,0,2.56-4,23.23,23.23,0,0,1-2.16-5.7Zm9.23,5.49H55.77V67.9h4.68V66H56.38V64h4.07V62.37H56.62V60.43h3.83V58.62H55.24V56.67h5.21V55H56.62V53h3.83V51.48h2.16V53h4.23c.45,0,.64.21.64.66v3h1.2v1.95h-1.2V61.7c0,.46-.19.67-.64.67H62.61V64h4.92v2H62.61V67.9h5.56v1.95H62.61V72.4H60.45ZM62.61,55v1.7h2.71V55.16a.17.17,0,0,0-.18-.19Zm0,3.65v1.81h2.53c.1,0,.18-.08.18-.22V58.62Z"/><path class="cls-1" d="M99.18,75.62c-4.1-1.57-7.06-3.72-8.84-6.44v4.15c0,.3,0,2.69-3,2.69a14.94,14.94,0,0,1-3.17-.45V73.23l1.76.45a6.35,6.35,0,0,0,.9.08c1.07,0,1.23-.43,1.23-1V66H82.25l2.69,2.75-1.65,1.33a23.55,23.55,0,0,0-2.74-2.74L82,66H80.76V64h7.32V62.42H79.67v1.92A31.88,31.88,0,0,1,77.86,75.6l-2.1-.7c1.25-3.43,1.7-5.61,1.75-11.2V53.56A.52.52,0,0,1,78.1,53h9.66v-1.7H90V53h9.82V55h-9.5v1.76H98a.56.56,0,0,1,.64.64v2.95h1.92v2.05H98.59v2.93c0,.66-.4.66-.88.66L99,67.45a23,23,0,0,1-3.54,2.93l-1.36-1.73A25.38,25.38,0,0,0,97.34,66h-6.6A20.42,20.42,0,0,0,93.53,70a16.09,16.09,0,0,0,7,3.73ZM79.24,72.93a28.69,28.69,0,0,0,6.87-3.43l1.28,1.76a42.2,42.2,0,0,1-7,3.56Zm8.84-16.15V55H79.93c-.18,0-.26.08-.26.27v5.08h8.41V58.72H80.87V56.78Zm2.26,1.94v1.65h6.09V58.91c0-.13-.08-.19-.21-.19Zm0,3.7V64h5.88a.19.19,0,0,0,.21-.21V62.42Z"/><path class="cls-1" d="M118,57.84a25.6,25.6,0,0,1-2.26,10.89,19.52,19.52,0,0,1-6.31,7L107.58,74c5.41-3.17,8-8.55,8-16.19h-6.76V55.37h6.76V51.56H118v3.81h7.88a.78.78,0,0,1,.88.88V72.19a1.09,1.09,0,0,0,1,1.17h1.17c.58,0,.74-.43.79-.93V67.37l2.48.43a34.6,34.6,0,0,1-.35,6,2.68,2.68,0,0,1-2.74,2h-2.15A2.79,2.79,0,0,1,124.27,73V58.32c0-.32-.1-.48-.32-.48Z"/><path class="cls-1" d="M149.93,57.84a25.5,25.5,0,0,1-2.27,10.89,19.49,19.49,0,0,1-6.3,7L139.52,74c5.4-3.17,8-8.55,8-16.19h-6.76V55.37h6.76V51.56h2.45v3.81h7.87a.78.78,0,0,1,.88.88V72.19a1.09,1.09,0,0,0,1,1.17h1.17c.59,0,.75-.43.8-.93V67.37l2.47.43a35.08,35.08,0,0,1-.34,6,2.69,2.69,0,0,1-2.74,2h-2.16A2.78,2.78,0,0,1,156.21,73V58.32c0-.32-.11-.48-.32-.48Z"/><path class="cls-1" d="M175,64.79l-2.87.37a10.35,10.35,0,0,0-.56-2l1.38-.21a26.54,26.54,0,0,0,2.35-2.87A18.84,18.84,0,0,0,171.56,57l1.07-1.78.66.45a39.3,39.3,0,0,0,2.21-4.26l1.78,1a45.57,45.57,0,0,1-2.5,4.42l1.62,1.49a19.47,19.47,0,0,0,2-4.52l2,.58c-.53,2.08-2.1,4.84-4.76,8.17l2.61-.42-.43-1.89,1.89-.32a45.73,45.73,0,0,1,1,5.27l-1.91.18-.19-1.17-1.41.21v11.5H175Zm-3.35,9.26a43.07,43.07,0,0,0,.75-7.56l1.91.24a52,52,0,0,1-.77,7.69Zm8-7.58.83,5.8-1.84.26-.8-5.66Zm5.67-1.25h-2V75.91h-2.15v-23a.67.67,0,0,1,.74-.74H195a.67.67,0,0,1,.77.74V73.31c0,2.63-2.47,2.63-3.4,2.63a18.13,18.13,0,0,1-2.72-.24l-.16-2.42a11.83,11.83,0,0,0,2.66.45c1.23,0,1.47-.77,1.47-1.17V65.22h-6.2v3.64c0,.37.16.53.53.53h4.47v2.08h-6.1a.89.89,0,0,1-1-1ZM191.17,59h2.43V54.36c0-.11-.06-.16-.19-.16h-10a.14.14,0,0,0-.16.16V59H189a30.45,30.45,0,0,0,1.59-4.25l1.89.77-.8,2.26Zm-7.9,4.16h4.15V61.06h-4.15Zm2.4-4.45a16.06,16.06,0,0,0-.88-3.19l1.89-.56a15,15,0,0,1,.9,3.3Zm3.8,4.45h4.13V61.06h-4.13Z"/><path class="cls-1" d="M203.5,72.72a47.8,47.8,0,0,0,5.67-1.14,97.65,97.65,0,0,0,2-13l2.11.38q-.81,6.83-1.73,11.89l1.78-.74,1,2A52.34,52.34,0,0,1,204.32,75Zm4.41-18.18V51.48h2.27v3.06h4.36v2.27H203.79V54.54Zm-2.5,16a64.62,64.62,0,0,0-.77-11.5l2.13-.1a87.39,87.39,0,0,1,.77,11.6Zm11.93,4.1v1.19h-2.27V62.5c0-.24.11-.37.38-.37h3.38V51.38h2.26v3.27h6.65v2.26h-6.65v5.22h5.75a.42.42,0,0,1,.48.48V75.83h-2.27V74.64Zm0-2.27h7.71V64.71a.28.28,0,0,0-.32-.32h-7.08c-.26,0-.34.13-.31.32Z"/>
</svg>
